<?xml version="1.0" encoding="utf-8"?>
<!-- Generator: Adobe Illustrator 16.0.0, SVG Export Plug-In . SVG Version: 6.00 Build 0)  -->
<!DOCTYPE svg PUBLIC "-//W3C//DTD SVG 1.1//EN" "http://www.w3.org/Graphics/SVG/1.1/DTD/svg11.dtd">
<svg version="1.1" id="圖層_1" xmlns="http://www.w3.org/2000/svg" xmlns:xlink="http://www.w3.org/1999/xlink" x="0px" y="0px"
	 width="417.828px" height="95.004px" viewBox="0 0 417.828 95.004" enable-background="new 0 0 417.828 95.004"
	 xml:space="preserve">
<g id="圖層_1_1_" display="none">
	
		<image display="inline" overflow="visible" enable-background="new    " width="259" height="75" xlink:href="B04526F7.png"  transform="matrix(1.0002 0 0 1.0002 -82.3999 214.2251)">
	</image>
	<path display="inline" fill="none" stroke="#E83828" stroke-width="10" stroke-miterlimit="10" d="M198.826,147.883"/>
</g>
<circle fill="none" stroke="#00E5E5" stroke-width="10" stroke-linecap="round" stroke-miterlimit="10" cx="89.831" cy="61.333" r="28"/>
<circle fill="none" stroke="#0ED2F7" stroke-width="10" stroke-linecap="round" stroke-miterlimit="10" cx="33.831" cy="61.333" r="28"/>
<line fill="none" stroke="#1EBED2" stroke-width="10" stroke-linecap="round" stroke-miterlimit="10" x1="61.831" y1="61.306" x2="68.496" y2="5.027"/>
<linearGradient id="SVGID_1_" gradientUnits="userSpaceOnUse" x1="-7.3774" y1="24.5649" x2="58.4478" y2="24.5649" gradientTransform="matrix(1 0 0 -1 8.3398 71.0449)">
	<stop  offset="0" style="stop-color:#5B86E5"/>
	<stop  offset="1" style="stop-color:#00E5E5"/>
</linearGradient>
<path fill="none" stroke="url(#SVGID_1_)" stroke-width="10" stroke-linecap="round" stroke-miterlimit="10" d="M61.788,59.627
	c-0.881-14.669-13.045-26.294-27.921-26.294c-14.79,0-26.898,11.489-27.904,26.039"/>
<linearGradient id="SVGID_2_" gradientUnits="userSpaceOnUse" x1="56.8311" y1="47.3325" x2="122.8311" y2="47.3325">
	<stop  offset="0.0969" style="stop-color:#0ED2F7"/>
	<stop  offset="0.9949" style="stop-color:#ACB6E5"/>
</linearGradient>
<path fill="none" stroke="url(#SVGID_2_)" stroke-width="10" stroke-linecap="round" stroke-miterlimit="10" d="M117.831,61.333
	c0-15.463-12.536-28-28-28s-28,12.536-28,28"/>
<path fill="none" stroke="#DA3A2A" stroke-width="10" stroke-linecap="round" stroke-miterlimit="10" d="M177.1,40.224"/>
<linearGradient id="SVGID_3_" gradientUnits="userSpaceOnUse" x1="0.6836" y1="4.7129" x2="0.6836" y2="71.0449" gradientTransform="matrix(1 0 0 -1 8.3398 71.0449)">
	<stop  offset="0" style="stop-color:#0ED2F7"/>
	<stop  offset="0.9949" style="stop-color:#B2FEFA"/>
</linearGradient>
<line fill="none" stroke="url(#SVGID_3_)" stroke-width="10" stroke-linecap="round" stroke-miterlimit="10" x1="5.691" y1="61.333" x2="12.356" y2="5"/>
<path opacity="0.8" fill="none" stroke="#A2FAFA" stroke-width="10" stroke-linecap="round" stroke-miterlimit="10" enable-background="new    " d="
	M159.694,90.004c-15.464,0-28-12.535-28-28"/>
<path opacity="0.8" fill="none" stroke="#0ED2F7" stroke-width="10" stroke-linecap="round" stroke-miterlimit="10" enable-background="new    " d="
	M187.694,62.004c0,15.465-12.536,28-28,28"/>
<path opacity="0.9" fill="none" stroke="#96F6F9" stroke-width="10" stroke-linecap="round" stroke-miterlimit="10" enable-background="new    " d="
	M159.694,34.005c15.464,0,28,12.536,28,28"/>
<path opacity="0.8" fill="none" stroke="#28D9F7" stroke-width="10" stroke-linecap="round" stroke-miterlimit="10" enable-background="new    " d="
	M131.694,62.004c0-15.463,12.536-28,28-28"/>
<line opacity="0.8" fill="none" stroke="#11D1F7" stroke-width="10" stroke-linecap="round" stroke-miterlimit="10" enable-background="new    " x1="202.161" y1="34.005" x2="202.161" y2="90.004"/>
<path opacity="0.8" fill="none" stroke="#2EB5E5" stroke-width="10" stroke-linecap="round" stroke-miterlimit="10" enable-background="new    " d="
	M229.162,34.005c7.731,0,14,6.268,14,14c0,7.732-6.269,14-14,14"/>
<line opacity="0.8" fill="none" stroke="#00E5E5" stroke-width="10" stroke-linecap="round" stroke-miterlimit="10" enable-background="new    " x1="202.161" y1="34.005" x2="229.162" y2="34.005"/>
<line opacity="0.8" fill="none" stroke="#4EE7F2" stroke-width="10" stroke-linecap="round" stroke-miterlimit="10" enable-background="new    " x1="229.162" y1="62.004" x2="202.161" y2="62.004"/>
<line opacity="0.8" fill="none" stroke="#41DAF9" stroke-width="10" stroke-linecap="round" stroke-miterlimit="10" enable-background="new    " x1="229.162" y1="62.004" x2="243.162" y2="90.004"/>
<line opacity="0.8" fill="none" stroke="#00E5E5" stroke-width="10" stroke-linecap="round" stroke-miterlimit="10" enable-background="new    " x1="257.828" y1="34.005" x2="257.828" y2="90.004"/>
<path fill="none" stroke="#85BDE9" stroke-width="10" stroke-linecap="round" stroke-miterlimit="10" d="M299.828,62.004
	c0,15.465-12.537,28-28,28"/>
<path fill="none" stroke="#5AC5EE" stroke-width="10" stroke-linecap="round" stroke-miterlimit="10" d="M271.828,34.005
	c15.463,0,28,12.536,28,28"/>
<line opacity="0.8" fill="none" stroke="#2AC7D7" stroke-width="10" stroke-linecap="round" stroke-miterlimit="10" enable-background="new    " x1="271.828" y1="90.004" x2="257.828" y2="90.004"/>
<line opacity="0.8" fill="none" stroke="#26C4D5" stroke-width="10" stroke-linecap="round" stroke-miterlimit="10" enable-background="new    " x1="257.828" y1="34.005" x2="271.828" y2="34.005"/>
<line opacity="0.8" fill="none" stroke="#76BFEB" stroke-width="10" stroke-linecap="round" stroke-miterlimit="10" enable-background="new    " x1="314.828" y1="34.005" x2="314.828" y2="90.004"/>
<line opacity="0.8" fill="none" stroke="#89BCE9" stroke-width="10" stroke-linecap="round" stroke-miterlimit="10" enable-background="new    " x1="314.828" y1="34.005" x2="356.83" y2="34.005"/>
<line opacity="0.8" fill="none" stroke="#00E5E5" stroke-width="10" stroke-linecap="round" stroke-miterlimit="10" enable-background="new    " x1="314.828" y1="90.004" x2="356.83" y2="90.004"/>
<line opacity="0.8" fill="none" stroke="#38CBF2" stroke-width="10" stroke-linecap="round" stroke-miterlimit="10" enable-background="new    " x1="314.828" y1="62.004" x2="335.828" y2="62.004"/>
<line opacity="0.8" fill="none" stroke="#22C2E5" stroke-width="10" stroke-linecap="round" stroke-miterlimit="10" enable-background="new    " x1="371.828" y1="34.005" x2="371.828" y2="90.004"/>
<path opacity="0.8" fill="none" stroke="#198FD8" stroke-width="10" stroke-linecap="round" stroke-miterlimit="10" enable-background="new    " d="
	M398.828,34.005c7.73,0,14,6.268,14,14c0,7.732-6.27,14-14,14"/>
<line opacity="0.8" fill="none" stroke="#3DA5E5" stroke-width="10" stroke-linecap="round" stroke-miterlimit="10" enable-background="new    " x1="371.828" y1="34.005" x2="398.828" y2="34.005"/>
<line opacity="0.8" fill="none" stroke="#469CE5" stroke-width="10" stroke-linecap="round" stroke-miterlimit="10" enable-background="new    " x1="398.828" y1="62.004" x2="371.828" y2="62.004"/>
<line opacity="0.8" fill="none" stroke="#42BEFC" stroke-width="10" stroke-linecap="round" stroke-miterlimit="10" enable-background="new    " x1="398.828" y1="62.004" x2="412.828" y2="90.004"/>
</svg>
